# xmcd
#
# Track frame offsets:
#	150
#	18081
#	32933
#	48242
#	64358
#	77766
#	93697
#	109750
#	125855
#	140801
#	156276
#	172131
#	187987
#	208109
#	225579
#	239492
#	254051
#	270431
#	285436
#	301309
#	318354
#	319637
#	320837
#	322120
#
# Disc length: 4311 seconds
#
# Revision: 2
# Processed by: cddbd v1.5.2PL0 Copyright (c) Steve Scherf et al.
# Submitted via: audiograbber 1.83.01
#
DISCID=6c10d518
DTITLE=Various Artists - CDX 497
DYEAR=2010
DGENRE=Country
TTITLE0=Gary Allan - Get Off On the Pain 
TTITLE1=Mallary Hope - Blossom In the Dust 
TTITLE2=Savannah Jack - I Know 
TTITLE3=Bad Boy Leroy - Late Night Lovin' 
TTITLE4=Randy Rouser - I'm All About It
TTITLE5=Easton Corbin - Roll With It
TTITLE6=Jake Owen - Tell Me
TTITLE7=Chris Janson - 'Till A Woman Comes Along 
TTITLE8=Marty Raybon - The Heat Is On
TTITLE9=Due West - Bible and the Belt
TTITLE10=Jadi Norris - Hail the American Soldier
TTITLE11=Chris Heers - Happy Thought
TTITLE12=Stevie Lee Woods - It's Only Money
TTITLE13=Kathe Knight - I Will
TTITLE14=Lee Allen - Settle Down
TTITLE15=Todd O'Neill - Somethin' With Some Attitude
TTITLE16=Nick Nicholson - Stronger Than Whiskey
TTITLE17=Brittany Clarke - Tonight I Let You Go
TTITLE18=Gwen Sebastian - V.I.P. (Barefoot Girl)
TTITLE19=Mark Wayne Glasmire - You Opened My Eyes
TTITLE20=Phil Vassar - CMA liners 
TTITLE21=Darius Rucker - CMA Liners
TTITLE22=Bellamy Brothers - CMA Liners
TTITLE23=Little Big Town - CMA Liners
EXTD=
EXTT0=
EXTT1=
EXTT2=
EXTT3=
EXTT4=
EXTT5=
EXTT6=
EXTT7=
EXTT8=
EXTT9=
EXTT10=
EXTT11=
EXTT12=
EXTT13=
EXTT14=
EXTT15=
EXTT16=
EXTT17=
EXTT18=
EXTT19=
EXTT20=
EXTT21=
EXTT22=
EXTT23=
PLAYORDER=
